# xmcd CD database file
#
# Track frame offsets:
#	150
#	22913
#	44548
#	61811
#	88553
#	113584
#	139470
#	158186
#	181326
#	210586
#	231543
#	247422
#	276691
#
# Disc length: 4092 seconds
#
# Revision: 0
# Processed by: cddbd v1.4PL0 Copyright (c) Steve Scherf et al.
# Submitted via: CDex 1.50
#
DISCID=c20ffa0d
DTITLE=Cool Disposition - Rockin At The Ribshack
DYEAR=2003
DGENRE=Blues
TTITLE0=Hurricane Howard
TTITLE1=Rock This House
TTITLE2=Mellow Down Easy
TTITLE3=Lovin' Glow
TTITLE4=Reconsider Baby
TTITLE5=Shake You Hips
TTITLE6=Good Rockin' Tonight
TTITLE7=Howling For My Darling
TTITLE8=Rock Bottom Blues
TTITLE9=Next Time You See Me
TTITLE10=She's Into Something
TTITLE11=Joyride
TTITLE12=Too Much Rhythm
EXTD=YEAR: 2003
EXTT0=
EXTT1=
EXTT2=
EXTT3=
EXTT4=
EXTT5=
EXTT6=
EXTT7=
EXTT8=
EXTT9=
EXTT10=
EXTT11=
EXTT12=
PLAYORDER=
